<?xml version="1.0" standalone="no"?>
<!DOCTYPE svg PUBLIC "-//W3C//DTD SVG 20010904//EN"
 "http://www.w3.org/TR/2001/REC-SVG-20010904/DTD/svg10.dtd">
<svg version="1.0" xmlns="http://www.w3.org/2000/svg"
 width="225.000000pt" height="225.000000pt" viewBox="0 0 225.000000 225.000000"
 preserveAspectRatio="xMidYMid meet">

<g transform="translate(0.000000,225.000000) scale(0.100000,-0.100000)"
fill="#000000" stroke="none">
<path d="M1 1633 c1 -399 5 -586 10 -528 35 388 272 731 624 905 316 156 664
156 980 0 354 -175 591 -520 624 -910 5 -61 9 127 10 528 l1 622 -1125 0
-1125 0 1 -617z"/>
<path d="M1040 1583 c-46 -7 -149 -43 -187 -64 -343 -191 -405 -669 -122 -935
175 -164 426 -200 649 -92 347 167 419 648 139 929 -123 123 -317 189 -479
162z"/>
<path d="M2240 931 c0 -183 -88 -427 -216 -601 -163 -222 -273 -259 -437 -148
-72 49 -179 99 -267 124 -89 25 -298 25 -390 0 -94 -26 -174 -62 -260 -116
-41 -27 -94 -53 -117 -59 -93 -25 -177 16 -276 134 -153 182 -245 400 -266
630 -6 61 -9 -70 -10 -402 l-1 -493 1125 0 1125 0 0 495 c0 272 -2 495 -5 495
-3 0 -5 -27 -5 -59z"/>
</g>
</svg>
