<!-- Generated by IcoMoon.io -->
<svg version="1.1" xmlns="http://www.w3.org/2000/svg" width="1024" height="1024" viewBox="0 0 1024 1024">
<title></title>
<g id="icomoon-ignore">
</g>
<path fill="#000" d="M0.455 280.804c0.455 181.589 2.276 266.695 4.551 240.299 15.929-176.583 123.79-332.686 283.989-411.876 143.815-70.997 302.194-70.997 446.009 0 161.109 79.644 268.971 236.658 283.989 414.151 2.276 27.762 4.096-57.799 4.551-240.299l0.455-283.079h-1024l0.455 280.804z"></path>
<path fill="#000" d="M473.316 303.559c-20.935 3.186-67.812 19.57-85.106 29.127-156.103 86.926-184.32 304.469-55.524 425.529 79.644 74.638 193.877 91.022 295.367 41.87 157.924-76.004 190.692-294.912 63.26-422.798-55.979-55.979-144.27-86.016-217.998-73.728z"></path>
<path fill="#000" d="M1019.449 600.292c0 83.285-40.050 194.332-98.304 273.522-74.183 101.035-124.245 117.874-198.884 67.356-32.768-22.3-81.465-45.056-121.515-56.434-40.505-11.378-135.623-11.378-177.493 0-42.78 11.833-79.189 28.217-118.329 52.793-18.66 12.288-42.78 24.121-53.248 26.852-42.325 11.378-80.555-7.282-125.611-60.985-69.632-82.83-111.502-182.044-121.060-286.72-2.731-27.762-4.096 31.858-4.551 182.955l-0.455 224.37h1024v-225.28c0-123.79-0.91-225.28-2.276-225.28s-2.276 12.288-2.276 26.852z"></path>
</svg>
